<?xml version="1.0" encoding="UTF-8" standalone="no"?>
<!DOCTYPE svg PUBLIC "-//W3C//DTD SVG 1.1//EN" "http://www.w3.org/Graphics/SVG/1.1/DTD/svg11.dtd">
<svg width="100%" height="100%" viewBox="0 0 100 100" version="1.1" xmlns="http://www.w3.org/2000/svg" xmlns:xlink="http://www.w3.org/1999/xlink" xml:space="preserve" xmlns:serif="http://www.serif.com/" style="fill-rule:evenodd;clip-rule:evenodd;stroke-linecap:round;stroke-linejoin:round;">
    <circle cx="50" cy="50" r="45.9" style="fill:white;stroke:rgb(81,81,81);stroke-width:3.13px;"/>
    <path d="M56.7,13.7C56.8,14.2 56.9,14.7 56.9,15.2C56.9,19 53.8,22.1 50,22.1C46.2,22.1 43.1,19 43.1,15.2C43.1,14.7 43.2,14.2 43.3,13.7C45.5,13.3 47.8,13.1 50,13.1C52.3,13 54.5,13.3 56.7,13.7ZM30.6,22.1C30.6,29.8 35.1,36.5 41.7,39.6L41.7,74.7L50,83L58.3,74.7L57.8,67.4L61.7,63.5L57.8,59.6L63.7,53.7L57.8,47.8L58.3,39.6C64.8,36.5 69.4,29.8 69.4,22.1C69.4,20.8 69.3,19.6 69,18.3C80.1,25 86.9,37 87,50C87,70.4 70.5,87 50,87C29.6,87 13,70.5 13,50C13,37 19.8,25 31,18.3C30.8,19.6 30.6,20.8 30.6,22.1ZM44.5,44.2L47.3,44.2L47.3,71.9L44.5,71.9L44.5,44.2Z" style="fill:url(#_Linear1);fill-rule:nonzero;"/>
    <g transform="matrix(1.10935,0,0,1.10935,-8.63908,-10.3579)">
        <path d="M59.6,94.8C55.9,94.8 52.9,91.8 52.9,88.1L52.9,67.6C52.9,64.3 55.4,61.5 58.6,61L58.6,56.9C58.6,48.5 65.4,41.7 73.8,41.7C82.2,41.7 89,48.5 89,56.9L89,61C92.2,61.5 94.7,64.3 94.7,67.6L94.7,88.1C94.7,91.8 91.7,94.8 88,94.8L59.6,94.8ZM79.7,61L79.7,56C79.7,52.8 77.1,50.1 73.8,50.1C70.5,50.1 68,52.7 68,56L68,61L79.7,61Z" style="fill:url(#_Linear2);fill-rule:nonzero;"/>
    </g>
    <g transform="matrix(1.10935,0,0,1.10935,-8.63908,-10.3579)">
        <path d="M73.8,42.7C81.6,42.7 88,49.1 88,56.9L88,62C91.1,62 93.7,64.6 93.7,67.7L93.7,88.2C93.7,91.3 91.1,93.9 88,93.9L59.6,93.9C56.5,93.9 53.9,91.3 53.9,88.2L53.9,67.6C53.9,64.5 56.5,61.9 59.6,61.9L59.6,56.8C59.6,49.1 66,42.7 73.8,42.7M67,62L80.7,62L80.7,56C80.7,52.2 77.6,49.1 73.8,49.1C70,49.1 67,52.2 67,56L67,62M73.8,40.7C64.9,40.7 57.6,48 57.6,56.9L57.6,60.2C54.3,61.1 51.9,64.1 51.9,67.6L51.9,88.1C51.9,92.3 55.3,95.8 59.6,95.8L88,95.8C92.2,95.8 95.7,92.4 95.7,88.1L95.7,67.6C95.7,64.1 93.3,61.1 90,60.2L90,56.9C90,48 82.7,40.7 73.8,40.7ZM69,60L69,56C69,53.3 71.2,51.1 73.9,51.1C76.6,51.1 78.8,53.3 78.8,56L78.8,60L69,60Z" style="fill:rgb(56,56,56);fill-rule:nonzero;"/>
    </g>
    <defs>
        <linearGradient id="_Linear1" x1="0" y1="0" x2="1" y2="0" gradientUnits="userSpaceOnUse" gradientTransform="matrix(-0.5725,-78.1539,78.1539,-0.5725,50.2693,86.83)"><stop offset="0" style="stop-color:rgb(128,128,128);stop-opacity:1"/><stop offset="1" style="stop-color:rgb(75,75,77);stop-opacity:1"/></linearGradient>
        <linearGradient id="_Linear2" x1="0" y1="0" x2="1" y2="0" gradientUnits="userSpaceOnUse" gradientTransform="matrix(2.56353e-15,41.8656,-41.8656,2.56353e-15,73.8,48.1382)"><stop offset="0" style="stop-color:rgb(214,144,41);stop-opacity:1"/><stop offset="1" style="stop-color:rgb(175,113,37);stop-opacity:1"/></linearGradient>
    </defs>
</svg>
